<svg width="100" height="50" viewBox="0 0 50 700" fill="none" xmlns="http://www.w3.org/2000/svg">
<path d="M133.3 480.6H172.4C172.4 484.6 172.2 488.3 171.9 491.6C171.6 494.9 170.9 497.9 169.9 500.7C168.5 504.7 166.6 508.2 164.2 511.3C161.8 514.3 158.9 516.9 155.7 518.9C152.5 520.9 148.9 522.5 145 523.5C141.1 524.6 137 525.1 132.7 525.1C126.8 525.1 121.4 524.1 116.5 522.2C111.7 520.3 107.5 517.5 104 514.1C100.5 510.5 97.8 506.3 95.9 501.4C94 496.4 93 491 93 485C93 479.1 93.9 473.7 95.8 468.8C97.7 463.8 100.5 459.6 103.9 456.1C107.5 452.6 111.7 449.9 116.7 448C121.7 446.1 127.2 445.1 133.3 445.1C141.2 445.1 148.1 446.8 154.1 450.2C160.1 453.6 164.8 458.9 168.3 466.1L149.6 473.8C147.9 469.6 145.6 466.7 142.8 464.9C140.1 463.1 136.9 462.2 133.4 462.2C130.5 462.2 127.8 462.8 125.4 463.9C123 465 120.9 466.5 119.2 468.6C117.5 470.6 116.2 473.1 115.2 475.9C114.3 478.8 113.8 482 113.8 485.5C113.8 488.7 114.2 491.7 115 494.4C115.9 497.1 117.1 499.5 118.8 501.5C120.5 503.5 122.6 505.1 125 506.2C127.5 507.3 130.4 507.8 133.6 507.8C135.5 507.8 137.4 507.6 139.2 507.2C141 506.7 142.6 506 144 505.1C145.5 504.1 146.7 502.8 147.6 501.3C148.5 499.8 149.2 497.9 149.5 495.7H133.3V480.6ZM269.6 463.1V525.1H248.6V463.1H231.6V445.1H286.6V463.1H269.6ZM359.6 472.5C355 466.9 349.4 464.1 342.7 464.1C339.7 464.1 337 464.6 334.4 465.7C331.9 466.8 329.8 468.3 327.9 470.1C326.1 471.9 324.6 474.1 323.6 476.7C322.6 479.3 322.1 482 322.1 485C322.1 488 322.6 490.8 323.6 493.4C324.7 496 326.1 498.2 327.9 500.1C329.8 502 332 503.5 334.5 504.5C337 505.6 339.7 506.1 342.6 506.1C348.9 506.1 354.6 503.4 359.6 498V521.4L357.6 522.1C354.6 523.2 351.8 523.9 349.1 524.4C346.5 524.9 343.9 525.2 341.3 525.2C336.1 525.2 331 524.2 326.2 522.3C321.4 520.3 317.2 517.5 313.5 513.9C309.9 510.3 306.9 506 304.7 501.1C302.5 496.1 301.4 490.7 301.4 484.9C301.4 479.1 302.5 473.7 304.6 468.9C306.8 464 309.7 459.8 313.4 456.3C317.1 452.7 321.4 450 326.2 448C331 446 336.1 445 341.4 445C344.4 445 347.4 445.3 350.3 446C353.3 446.6 356.4 447.6 359.6 448.9V472.5ZM400.8 485.1C400.8 488.1 401.4 490.9 402.5 493.5C403.6 496.1 405.2 498.3 407.1 500.2C409 502.1 411.3 503.6 413.9 504.6C416.5 505.6 419.3 506.1 422.2 506.1C425.1 506.1 427.8 505.6 430.4 504.6C433 503.5 435.3 502 437.3 500.2C439.3 498.3 440.9 496.1 442 493.5C443.1 490.9 443.7 488.2 443.7 485.1C443.7 482 443.1 479.3 442 476.7C440.9 474.1 439.3 471.9 437.3 470C435.4 468.1 433.1 466.7 430.4 465.7C427.8 464.6 425.1 464.1 422.2 464.1C419.3 464.1 416.6 464.6 413.9 465.7C411.3 466.7 409.1 468.2 407.1 470C405.2 471.9 403.6 474.1 402.5 476.7C401.4 479.3 400.8 482.1 400.8 485.1ZM380.2 485.1C380.2 479.5 381.2 474.2 383.3 469.4C385.4 464.5 388.3 460.2 392 456.6C395.7 453 400.1 450.1 405.2 448.1C410.4 446 416.1 445 422.2 445C428.3 445 434 446 439.1 448.1C444.3 450.1 448.7 452.9 452.4 456.6C456.2 460.2 459.1 464.5 461.2 469.4C463.3 474.2 464.3 479.5 464.3 485.1C464.3 490.7 463.3 496 461.2 500.9C459.1 505.7 456.2 510 452.4 513.6C448.7 517.2 444.3 520.1 439.1 522.2C433.9 524.2 428.3 525.2 422.2 525.2C416 525.2 410.3 524.2 405.2 522.2C400.1 520.1 395.7 517.3 392 513.6C388.3 510 385.4 505.7 383.3 500.9C381.2 496 380.2 490.8 380.2 485.1ZM505.6 445.1V525.1H484.6V445.1H505.6ZM211.6 445.1V525.1H190.6V445.1H211.6ZM527.6 525.1V445.1H547.6L586.6 494V445.1H607.6V525.1H587.4L548.6 476.2V525.1H527.6Z" fill="#0E0333"/>
<path d="M417.678 294.683C417.678 306.186 414.312 317.437 407.996 327.047L421.674 338.292C430.623 325.518 435.409 310.286 435.378 294.683C435.373 279.523 430.888 264.703 422.489 252.09L408.268 262.843C414.124 271.965 417.678 283.027 417.678 294.683Z" fill="#02E2AC"/>
<path d="M432.783 346.451C423.461 338.751 391.189 313.011 386.907 309.593C389.339 305.002 390.59 299.88 390.55 294.686C390.509 289.492 389.177 284.389 386.673 279.837L422.587 252.7L433.077 244.193C435.655 242.477 436.076 240.575 434.203 238.111C431.763 234.901 429.12 231.85 426.29 228.977C411.181 213.627 390.827 203.441 368.132 201.297V183.265C368.132 178.494 364.528 174.329 359.762 174.02C358.536 173.938 357.307 174.109 356.151 174.521C354.994 174.934 353.935 175.579 353.038 176.417C352.141 177.255 351.426 178.268 350.937 179.393C350.449 180.519 350.196 181.732 350.196 182.959V201.306C342.549 202.027 335.019 203.686 327.777 206.245V183.265C327.777 178.494 324.173 174.329 319.407 174.02C318.182 173.938 316.953 174.109 315.797 174.521C314.64 174.934 313.581 175.579 312.684 176.417C311.787 177.255 311.073 178.268 310.584 179.393C310.095 180.519 309.843 181.732 309.843 182.959V214.808C283.139 231.241 265.271 260.611 265.003 294.174C264.591 346.326 308.099 389 360.308 389H430.004C431.275 388.999 432.505 388.549 433.475 387.729C434.445 386.909 435.094 385.772 435.305 384.52L435.377 351.985C435.381 350.928 435.15 349.884 434.701 348.927C434.253 347.97 433.598 347.125 432.783 346.451V346.451ZM417.545 357.931L417.45 371.083H360.102C317.968 371.083 282.73 336.643 282.937 294.555C283.05 271.452 293.476 250.793 309.839 236.903V254.318C309.839 259.09 313.443 263.256 318.209 263.565C319.435 263.646 320.663 263.475 321.82 263.063C322.976 262.65 324.036 262.005 324.932 261.167C325.829 260.329 326.544 259.316 327.032 258.191C327.521 257.066 327.773 255.852 327.773 254.626V225.551C337.634 221.088 348.335 218.783 359.16 218.792C379.214 218.792 396.108 225.437 409.718 238.081L373.108 266.85C368.775 264.696 364 263.579 359.16 263.584C341.826 263.584 327.773 277.621 327.773 294.938C327.773 312.255 341.826 326.292 359.16 326.292C364.075 326.296 368.923 325.141 373.307 322.922L417.545 357.931ZM372.612 294.938C372.612 297.596 371.823 300.194 370.345 302.404C368.867 304.614 366.766 306.336 364.308 307.353C361.85 308.371 359.145 308.637 356.536 308.118C353.926 307.6 351.529 306.32 349.648 304.44C347.766 302.561 346.485 300.167 345.966 297.56C345.447 294.953 345.713 292.251 346.732 289.795C347.75 287.34 349.474 285.241 351.686 283.764C353.898 282.288 356.499 281.5 359.16 281.5C362.728 281.5 366.149 282.915 368.672 285.436C371.195 287.956 372.612 291.374 372.612 294.938Z" fill="#0E0333"/>
</svg>
