<svg id="svg" version="1.1" xmlns="http://www.w3.org/2000/svg" xmlns:xlink="http://www.w3.org/1999/xlink" width="400" height="400" viewBox="0, 0, 400,400"><g id="svgg"><path id="path0" d="M193.709 71.263 C 165.449 74.927,138.309 98.250,130.788 125.335 C 128.312 134.254,128.059 135.643,127.530 143.206 C 126.543 157.315,132.440 182.864,137.684 187.200 C 137.950 187.420,138.670 188.561,139.284 189.735 C 141.339 193.667,148.984 202.767,152.948 206.000 C 155.106 207.760,157.846 210.010,159.036 210.999 C 160.226 211.988,161.444 212.798,161.743 212.799 C 162.041 212.800,162.787 213.301,163.400 213.914 C 175.036 225.551,212.022 229.143,234.000 220.771 C 247.901 215.475,266.395 199.725,272.010 188.400 C 272.665 187.080,273.650 185.524,274.200 184.943 C 274.750 184.361,275.200 183.562,275.200 183.167 C 275.200 182.771,276.069 180.547,277.131 178.224 C 284.899 161.233,284.926 135.616,277.195 118.713 C 276.098 116.315,275.200 114.085,275.200 113.759 C 275.200 112.943,267.207 100.844,265.047 98.391 C 264.083 97.296,262.463 95.450,261.447 94.289 C 246.602 77.326,219.086 67.973,193.709 71.263 M158.800 252.136 C 133.843 256.861,120.085 285.117,131.653 307.889 C 149.503 343.024,201.489 332.966,205.232 293.653 C 207.671 268.046,184.447 247.281,158.800 252.136 " stroke="none" fill="#000000" fill-rule="evenodd"></path></g></svg>